HIERARCHY
ROOT Hips
{
	OFFSET 0.000000 0.000000 0.000000 
	CHANNELS 6 Xposition Yposition Zposition Zrotation Xrotation Yrotation
	JOINT Spine
	{
		OFFSET -0.000000 8.280624 0.000000 
		CHANNELS 3 Zrotation Xrotation Yrotation
		JOINT Spine1
		{
			OFFSET -0.000000 24.860672 0.000000 
			CHANNELS 3 Zrotation Xrotation Yrotation
			JOINT Neck
			{
				OFFSET -0.000000 24.758574 2.250779 
				CHANNELS 3 Zrotation Xrotation Yrotation
				JOINT Head
				{
					OFFSET -0.000000 14.137651 -2.019665 
					CHANNELS 3 Zrotation Xrotation Yrotation
					End Site
					{
						OFFSET -0.000000 25.245806 0.000000 
					}
				}
			}
			JOINT LeftShoulder
			{
				OFFSET 4.021533 22.370487 -0.301823 
				CHANNELS 3 Zrotation Xrotation Yrotation
				JOINT LeftArm
				{
					OFFSET 12.928750 0.000000 0.000000 
					CHANNELS 3 Zrotation Xrotation Yrotation
					JOINT LeftForeArm
					{
						OFFSET 29.110218 0.000000 0.000000 
						CHANNELS 3 Zrotation Xrotation Yrotation
						JOINT LeftHand
						{
							OFFSET 26.112843 0.000000 0.000000 
							CHANNELS 3 Zrotation Xrotation Yrotation
							End Site
							{
								OFFSET 15.147485 0.000000 0.000000 
							}
						}
					}
				}
			}
			JOINT RightShoulder
			{
				OFFSET -4.040554 22.370487 -0.301823 
				CHANNELS 3 Zrotation Xrotation Yrotation
				JOINT RightArm
				{
					OFFSET -12.928750 0.000000 0.000000 
					CHANNELS 3 Zrotation Xrotation Yrotation
					JOINT RightForeArm
					{
						OFFSET -29.110218 0.000000 0.000000 
						CHANNELS 3 Zrotation Xrotation Yrotation
						JOINT RightHand
						{
							OFFSET -26.112843 0.000000 0.000000 
							CHANNELS 3 Zrotation Xrotation Yrotation
							End Site
							{
								OFFSET -15.147485 0.000000 0.000000 
							}
						}
					}
				}
			}
		}
	}
	JOINT LeftUpLeg
	{
		OFFSET 10.098323 0.000000 0.000000 
		CHANNELS 3 Zrotation Xrotation Yrotation
		JOINT LeftLeg
		{
			OFFSET -0.000000 -44.180832 0.000000 
			CHANNELS 3 Zrotation Xrotation Yrotation
			JOINT LeftFoot
			{
				OFFSET -0.000000 -40.401024 0.000000 
				CHANNELS 3 Zrotation Xrotation Yrotation
				JOINT LeftToeBase
				{
					OFFSET -0.000000 -6.563910 15.147485 
					CHANNELS 3 Zrotation Xrotation Yrotation
					End Site
					{
						OFFSET -0.000000 0.000000 4.039329 
					}
				}
			}
		}
	}
	JOINT RightUpLeg
	{
		OFFSET -10.098323 0.000000 0.000000 
		CHANNELS 3 Zrotation Xrotation Yrotation
		JOINT RightLeg
		{
			OFFSET -0.000000 -44.180832 0.000000 
			CHANNELS 3 Zrotation Xrotation Yrotation
			JOINT RightFoot
			{
				OFFSET -0.000000 -40.401024 0.000000 
				CHANNELS 3 Zrotation Xrotation Yrotation
				JOINT RightToeBase
				{
					OFFSET -0.000000 -6.563910 15.147485 
					CHANNELS 3 Zrotation Xrotation Yrotation
					End Site
					{
						OFFSET -0.000000 0.000000 4.039329 
					}
				}
			}
		}
	}
}
MOTION
Frames: 16
Frame Time: 0.008333
-41.546497 93.738297 12.595166 0.756681 0.657071 95.944084 -0.990438 12.897693 -10.064733 -5.109559 5.917496 -9.912194 -2.478479 16.802080 27.811743 -17.285189 -1.333690 26.506029 0.194773 2.437699 -28.509850 -17.516329 36.326412 -69.001678 -19.402769 -9.434556 -54.865719 9.156118 -18.998299 3.971712 -1.354548 6.733271 7.793722 64.164322 3.125411 15.216539 31.457758 -20.273678 82.755119 -15.142623 -45.219730 7.953032 20.320372 -11.359679 4.944461 0.018402 17.836596 15.235700 -7.707850 18.989325 7.787627 0.000000 0.000000 0.000000 -8.302974 -9.826996 -10.260735 -0.062331 29.185133 16.478477 7.289487 -7.041092 -19.404835 0.000000 0.000000 0.000000 
-41.626663 93.783531 12.846997 0.712193 0.705063 95.608261 -1.075282 13.032892 -10.099603 -5.208019 5.763948 -9.959832 -2.446261 17.005842 27.893568 -17.297266 -1.289105 26.593023 0.180055 2.199880 -28.547028 -17.071211 36.078606 -69.325607 -18.733486 -9.027122 -55.613796 9.655204 -18.398289 3.991515 -1.395688 6.770602 7.483349 63.999386 2.691055 15.129642 31.315975 -19.349251 83.877396 -14.163725 -44.916748 9.275311 20.232014 -11.758580 5.359397 -0.083736 18.893595 13.531148 -9.042676 17.993185 7.706771 0.000000 0.000000 0.000000 -8.210427 -9.989864 -10.181837 -0.052646 29.141815 16.624308 7.185781 -6.891665 -19.324615 0.000000 0.000000 0.000000 
-41.699303 93.834618 13.073297 0.706455 0.788789 95.273338 -1.195363 13.196352 -10.130854 -5.272907 5.609213 -10.010380 -2.432461 17.256264 27.983347 -17.372606 -1.311323 26.668379 0.089156 1.909926 -28.629068 -16.567493 35.900517 -69.651924 -18.127386 -8.831568 -56.363640 10.249298 -18.015039 4.088334 -1.478291 6.653895 7.209042 63.886299 2.292329 14.969688 31.290451 -18.389311 85.024391 -13.791206 -44.702091 10.444703 20.125870 -12.079536 5.359489 -0.468081 19.932709 12.233280 -10.207689 16.912909 7.662511 0.000000 0.000000 0.000000 -8.158115 -10.095486 -10.108365 -0.060606 29.083710 16.836239 7.090242 -6.752672 -19.282265 0.000000 0.000000 0.000000 
-41.779926 93.890404 13.280478 0.685680 0.892255 94.927216 -1.301336 13.320605 -10.142073 -5.386121 5.495850 -10.035066 -2.323233 17.392212 28.041855 -17.474344 -1.159945 26.737076 0.121466 1.707372 -28.741289 -16.420031 35.454132 -69.870308 -17.432747 -8.389923 -56.767555 10.505996 -17.318968 3.774077 -1.417547 6.618528 6.917320 63.601170 1.771170 14.973866 31.618568 -17.447586 86.341034 -13.999497 -44.875572 11.429997 19.929283 -12.406886 5.409595 -0.800134 20.968565 11.041015 -11.296406 15.806887 7.518250 0.000000 0.000000 0.000000 -8.122115 -10.214067 -9.983613 -0.074671 29.011286 17.035667 7.010109 -6.613759 -19.264688 0.000000 0.000000 0.000000 
-41.845337 93.952400 13.494425 0.709731 0.927543 94.488358 -1.386543 13.433493 -10.088529 -5.482545 5.435868 -9.991092 -2.218366 17.519459 28.088972 -17.573849 -1.044820 26.789177 0.173603 1.523173 -28.850113 -15.916931 35.134888 -70.254387 -16.467754 -8.171504 -57.302971 10.819737 -16.691368 3.665025 -1.304511 6.519832 6.638878 63.279366 1.135205 14.939548 32.059818 -16.358793 87.588242 -14.273380 -45.031185 12.318270 19.784292 -12.605227 5.664180 -1.038320 21.915119 9.771448 -12.366301 14.760900 7.407452 0.000000 0.000000 0.000000 -7.957407 -10.301694 -9.717689 -0.124785 28.917177 17.208481 6.954851 -6.433316 -19.278633 0.000000 0.000000 0.000000 
-41.898457 94.013855 13.679382 0.738952 0.987614 94.101646 -1.457456 13.495195 -10.045331 -5.610143 5.432751 -9.951126 -2.127438 17.718718 28.144512 -17.721745 -1.069705 26.820829 0.274579 1.492771 -28.841719 -15.473124 34.575008 -70.796890 -15.661575 -7.859993 -57.579865 11.267612 -16.012215 3.427721 -1.178950 6.361418 6.407433 62.970383 0.558402 14.846120 31.525673 -15.427914 88.429382 -13.115746 -44.261215 13.304560 19.630354 -12.829528 5.413058 -1.579737 22.904657 9.107158 -13.333652 13.732491 7.394816 0.000000 0.000000 0.000000 -7.828488 -10.356319 -9.502260 -0.203178 28.820000 17.383356 6.902097 -6.274848 -19.293653 0.000000 0.000000 0.000000 
-41.950779 94.063896 13.831627 0.703615 1.108956 93.714912 -1.573142 13.499081 -10.011997 -5.701961 5.372406 -9.930179 -2.151977 17.984346 28.229792 -17.861143 -1.195399 26.866508 0.340151 1.406469 -28.875015 -15.634520 33.921310 -70.984337 -15.279201 -7.428935 -57.719933 11.914132 -15.451887 2.825127 -1.144293 6.217600 6.228571 62.726383 -0.019582 14.847781 31.127382 -14.609796 89.293434 -12.544206 -43.710442 14.117761 19.335402 -13.084235 5.325010 -1.991764 23.829556 8.479834 -14.227979 12.770203 7.286511 0.000000 0.000000 0.000000 -7.789006 -10.464558 -9.269703 -0.265887 28.724533 17.543303 6.819114 -6.183491 -19.301815 0.000000 0.000000 0.000000 
-41.993637 94.121918 13.977253 0.726860 1.188843 93.297638 -1.652365 13.569726 -9.964366 -5.775391 5.275310 -9.894404 -2.194969 18.220495 28.329712 -17.979914 -1.266928 26.938944 0.385912 1.366472 -28.880302 -15.344595 33.399868 -71.372093 -14.859617 -7.614156 -58.224068 12.419635 -15.469249 2.880924 -1.098217 6.066946 6.090025 62.482071 -0.555592 14.877786 33.024998 -13.095304 91.236732 -17.840981 -45.483875 13.521031 19.048792 -13.221519 5.460371 -2.264960 24.647860 7.666876 -14.945923 11.922311 7.197870 0.000000 0.000000 0.000000 -7.669900 -10.519155 -8.914482 -0.340352 28.611599 17.601965 6.781300 -6.041623 -19.307711 0.000000 0.000000 0.000000 
-42.032326 94.175247 14.101693 0.746071 1.269862 92.896667 -1.709092 13.614177 -9.921517 -5.861345 5.195213 -9.859110 -2.203222 18.360796 28.400669 -18.081501 -1.196562 27.007853 0.439741 1.314599 -28.876987 -15.111725 32.882870 -71.789406 -14.190061 -7.521873 -58.368965 12.851505 -15.067168 2.487161 -1.077834 5.901157 5.992986 62.237816 -1.027897 14.949559 34.882301 -11.552157 93.066856 -23.439693 -47.298775 12.992599 18.780689 -13.367561 5.295539 -2.782035 25.455845 7.384308 -15.585671 11.200191 7.072175 0.000000 0.000000 0.000000 -7.558819 -10.567406 -8.524071 -0.402863 28.488340 17.566551 6.753984 -5.904427 -19.274710 0.000000 0.000000 0.000000 
-42.056030 94.222488 14.209941 0.802911 1.372643 92.472664 -1.776959 13.680533 -9.871310 -5.945330 5.096365 -9.819374 -2.240806 18.520277 28.459276 -18.192860 -1.135197 27.060001 0.501539 1.243011 -28.889244 -15.177573 32.318214 -72.028275 -13.284599 -6.726070 -58.134232 13.630127 -13.847669 1.557997 -1.094880 5.754266 5.954656 61.993694 -1.711562 14.987656 34.722706 -10.577912 93.867378 -23.590643 -47.008011 13.728954 18.432789 -13.486112 5.309112 -3.160834 26.294325 7.205532 -16.042170 10.569362 6.769519 0.000000 0.000000 0.000000 -7.476917 -10.569166 -8.040663 -0.425249 28.370205 17.514782 6.711752 -5.814451 -19.281719 0.000000 0.000000 0.000000 
-42.086761 94.274590 14.317682 0.856483 1.440107 91.989006 -1.844745 13.757652 -9.782362 -6.017504 4.976767 -9.742891 -2.241031 18.705181 28.544430 -18.360826 -1.088328 27.130520 0.577363 1.179457 -28.906904 -15.186226 31.751076 -72.271294 -12.754813 -6.547574 -58.208172 14.336613 -13.425757 1.208910 -1.087886 5.584307 5.970995 61.765244 -2.485374 14.982361 34.550838 -9.555768 94.536766 -23.407990 -46.589123 14.537232 18.148279 -13.549935 5.440503 -3.539633 27.050222 6.950921 -16.431890 9.908637 6.570703 0.000000 0.000000 0.000000 -7.336086 -10.604384 -7.445138 -0.450576 28.268145 17.442162 6.699772 -5.688854 -19.336506 0.000000 0.000000 0.000000 
-42.130192 94.331879 14.409054 0.852145 1.475969 91.517654 -1.868113 13.777267 -9.703054 -6.075451 4.855374 -9.670648 -2.280594 18.846661 28.639666 -18.474333 -1.009601 27.224398 0.603520 1.112200 -28.932507 -15.207709 31.182468 -72.501381 -12.111003 -6.306966 -58.040188 14.689590 -12.921486 0.313611 -1.086709 5.424238 6.018415 61.518257 -3.068748 15.111873 34.224575 -8.955699 95.315590 -23.241652 -46.315510 14.907784 17.867268 -13.678781 5.557965 -3.866923 27.777597 6.928391 -16.882011 9.457337 6.287126 0.000000 0.000000 0.000000 -7.173536 -10.710788 -6.898588 -0.505000 28.175919 17.385225 6.727162 -5.517664 -19.385576 0.000000 0.000000 0.000000 
-42.159771 94.379143 14.477010 0.889318 1.548068 91.098587 -1.919550 13.830163 -9.650521 -6.102070 4.731309 -9.630718 -2.350818 18.932461 28.715269 -18.523054 -0.880478 27.315022 0.623145 1.046633 -28.972460 -15.234175 30.606285 -72.780670 -11.525141 -6.056077 -57.747490 15.299536 -12.443502 -0.672086 -1.134537 5.301958 6.094534 61.276051 -3.481622 15.325588 33.316463 -8.865837 95.963676 -21.939861 -45.689461 15.457325 17.485334 -13.802275 5.624805 -4.067918 28.503990 6.775136 -17.302387 9.078288 6.091949 0.000000 0.000000 0.000000 -7.080844 -10.748698 -6.428138 -0.554923 28.075460 17.262003 6.754972 -5.377757 -19.321239 0.000000 0.000000 0.000000 
-42.184967 94.423622 14.525877 0.933950 1.616102 90.713882 -1.931216 13.880644 -9.615604 -6.167792 4.616843 -9.601523 -2.358947 19.062222 28.790932 -18.660900 -0.808898 27.384996 0.665375 0.953149 -29.018436 -15.243752 30.099140 -73.058945 -11.013958 -5.998986 -57.520145 16.105000 -12.222129 -1.662321 -1.160570 5.165143 6.169533 61.012470 -3.976482 15.531647 31.224335 -9.256306 96.074409 -17.806055 -43.743778 16.547832 17.068062 -13.909321 5.648082 -4.263576 29.105959 6.954737 -17.522171 8.937680 5.651484 0.000000 0.000000 0.000000 -7.010896 -10.763051 -5.973207 -0.577040 27.961576 17.053392 6.801952 -5.230126 -19.191355 0.000000 0.000000 0.000000 
-42.207436 94.462845 14.554029 0.976126 1.684413 90.345345 -1.911606 13.915623 -9.594934 -6.256993 4.511459 -9.581237 -2.358883 19.187988 28.870190 -18.823761 -0.755788 27.452900 0.705554 0.829489 -29.061127 -15.239649 29.596779 -73.346916 -10.425155 -5.957808 -57.225258 16.746941 -11.938663 -2.368247 -1.203013 4.981983 6.268990 60.761616 -4.680386 15.695184 29.400171 -9.489843 96.155617 -13.987022 -41.846043 17.235104 16.631044 -13.989368 5.580757 -4.507246 29.571194 7.674814 -17.494663 9.072521 4.902863 0.000000 0.000000 0.000000 -6.966055 -10.783051 -5.543588 -0.597626 27.885069 17.048164 6.838764 -5.143922 -19.246721 0.000000 0.000000 0.000000 
-42.226238 94.498322 14.568666 1.023949 1.750054 89.987427 -1.906552 13.969833 -9.576941 -6.292647 4.377121 -9.569522 -2.405369 19.255749 28.928469 -18.903439 -0.644912 27.519365 0.713775 0.716540 -29.130308 -15.366322 28.957823 -73.524696 -10.023584 -5.652419 -56.852188 17.479250 -11.515379 -3.167581 -1.279441 4.772763 6.402139 60.489307 -5.142078 15.905278 29.039063 -9.285167 96.919716 -14.050541 -41.715645 17.267530 16.185284 -14.044320 5.424419 -4.723265 30.036596 7.756057 -17.700886 8.936734 4.706513 0.000000 0.000000 0.000000 -6.946666 -10.798684 -5.144477 -0.594468 27.828779 17.108862 6.862246 -5.076328 -19.354801 0.000000 0.000000 0.000000 
